<mxfile host="app.diagrams.net" modified="2024-01-29T19:01:13.202Z" agent="Mozilla/5.0 (Macintosh; Intel Mac OS X 10_15_7) AppleWebKit/537.36 (KHTML, like Gecko) Chrome/120.0.0.0 Safari/537.36" etag="E9TSWkEB0B0XDN2PGF7T" version="23.0.2" type="github">
  <diagram id="C5RBs43oDa-KdzZeNtuy" name="Page-1">
    <mxGraphModel dx="398" dy="212" grid="1" gridSize="10" guides="1" tooltips="1" connect="1" arrows="1" fold="1" page="1" pageScale="1" pageWidth="827" pageHeight="1169" math="0" shadow="0">
      <root>
        <mxCell id="WIyWlLk6GJQsqaUBKTNV-0" />
        <mxCell id="WIyWlLk6GJQsqaUBKTNV-1" parent="WIyWlLk6GJQsqaUBKTNV-0" />
        <mxCell id="GW9euud97T4dM2Y2JnJj-0" value="Field" style="swimlane;fontStyle=0;align=center;verticalAlign=top;childLayout=stackLayout;horizontal=1;startSize=26;horizontalStack=0;resizeParent=1;resizeLast=0;collapsible=1;marginBottom=0;rounded=0;shadow=0;strokeWidth=1;" parent="WIyWlLk6GJQsqaUBKTNV-1" vertex="1">
          <mxGeometry x="750" y="10" width="160" height="90" as="geometry">
            <mxRectangle x="550" y="140" width="160" height="26" as="alternateBounds" />
          </mxGeometry>
        </mxCell>
        <mxCell id="GW9euud97T4dM2Y2JnJj-1" value="- _value" style="text;align=left;verticalAlign=top;spacingLeft=4;spacingRight=4;overflow=hidden;rotatable=0;points=[[0,0.5],[1,0.5]];portConstraint=eastwest;" parent="GW9euud97T4dM2Y2JnJj-0" vertex="1">
          <mxGeometry y="26" width="160" height="26" as="geometry" />
        </mxCell>
        <mxCell id="GW9euud97T4dM2Y2JnJj-2" value="+ is_valid()" style="text;align=left;verticalAlign=top;spacingLeft=4;spacingRight=4;overflow=hidden;rotatable=0;points=[[0,0.5],[1,0.5]];portConstraint=eastwest;rounded=0;shadow=0;html=0;" parent="GW9euud97T4dM2Y2JnJj-0" vertex="1">
          <mxGeometry y="52" width="160" height="26" as="geometry" />
        </mxCell>
        <mxCell id="GW9euud97T4dM2Y2JnJj-9" value="Address" style="swimlane;fontStyle=0;align=center;verticalAlign=top;childLayout=stackLayout;horizontal=1;startSize=26;horizontalStack=0;resizeParent=1;resizeLast=0;collapsible=1;marginBottom=0;rounded=0;shadow=0;strokeWidth=1;" parent="WIyWlLk6GJQsqaUBKTNV-1" vertex="1">
          <mxGeometry x="240" y="170" width="160" height="60" as="geometry">
            <mxRectangle x="550" y="140" width="160" height="26" as="alternateBounds" />
          </mxGeometry>
        </mxCell>
        <mxCell id="GW9euud97T4dM2Y2JnJj-11" value="+ is_valid()" style="text;align=left;verticalAlign=top;spacingLeft=4;spacingRight=4;overflow=hidden;rotatable=0;points=[[0,0.5],[1,0.5]];portConstraint=eastwest;rounded=0;shadow=0;html=0;" parent="GW9euud97T4dM2Y2JnJj-9" vertex="1">
          <mxGeometry y="26" width="160" height="26" as="geometry" />
        </mxCell>
        <mxCell id="GW9euud97T4dM2Y2JnJj-12" value="Date" style="swimlane;fontStyle=0;align=center;verticalAlign=top;childLayout=stackLayout;horizontal=1;startSize=26;horizontalStack=0;resizeParent=1;resizeLast=0;collapsible=1;marginBottom=0;rounded=0;shadow=0;strokeWidth=1;" parent="WIyWlLk6GJQsqaUBKTNV-1" vertex="1">
          <mxGeometry x="443" y="170" width="160" height="60" as="geometry">
            <mxRectangle x="550" y="140" width="160" height="26" as="alternateBounds" />
          </mxGeometry>
        </mxCell>
        <mxCell id="GW9euud97T4dM2Y2JnJj-13" value="+ is_valid()" style="text;align=left;verticalAlign=top;spacingLeft=4;spacingRight=4;overflow=hidden;rotatable=0;points=[[0,0.5],[1,0.5]];portConstraint=eastwest;rounded=0;shadow=0;html=0;" parent="GW9euud97T4dM2Y2JnJj-12" vertex="1">
          <mxGeometry y="26" width="160" height="26" as="geometry" />
        </mxCell>
        <mxCell id="GW9euud97T4dM2Y2JnJj-16" value="EmailAddress" style="swimlane;fontStyle=0;align=center;verticalAlign=top;childLayout=stackLayout;horizontal=1;startSize=26;horizontalStack=0;resizeParent=1;resizeLast=0;collapsible=1;marginBottom=0;rounded=0;shadow=0;strokeWidth=1;" parent="WIyWlLk6GJQsqaUBKTNV-1" vertex="1">
          <mxGeometry x="650" y="170" width="160" height="60" as="geometry">
            <mxRectangle x="550" y="140" width="160" height="26" as="alternateBounds" />
          </mxGeometry>
        </mxCell>
        <mxCell id="GW9euud97T4dM2Y2JnJj-17" value="+ is_valid()" style="text;align=left;verticalAlign=top;spacingLeft=4;spacingRight=4;overflow=hidden;rotatable=0;points=[[0,0.5],[1,0.5]];portConstraint=eastwest;rounded=0;shadow=0;html=0;" parent="GW9euud97T4dM2Y2JnJj-16" vertex="1">
          <mxGeometry y="26" width="160" height="26" as="geometry" />
        </mxCell>
        <mxCell id="GW9euud97T4dM2Y2JnJj-18" value="Name" style="swimlane;fontStyle=0;align=center;verticalAlign=top;childLayout=stackLayout;horizontal=1;startSize=26;horizontalStack=0;resizeParent=1;resizeLast=0;collapsible=1;marginBottom=0;rounded=0;shadow=0;strokeWidth=1;" parent="WIyWlLk6GJQsqaUBKTNV-1" vertex="1">
          <mxGeometry x="40" y="170" width="160" height="60" as="geometry">
            <mxRectangle x="550" y="140" width="160" height="26" as="alternateBounds" />
          </mxGeometry>
        </mxCell>
        <mxCell id="GW9euud97T4dM2Y2JnJj-19" value="+ is_valid()" style="text;align=left;verticalAlign=top;spacingLeft=4;spacingRight=4;overflow=hidden;rotatable=0;points=[[0,0.5],[1,0.5]];portConstraint=eastwest;rounded=0;shadow=0;html=0;" parent="GW9euud97T4dM2Y2JnJj-18" vertex="1">
          <mxGeometry y="26" width="160" height="26" as="geometry" />
        </mxCell>
        <mxCell id="GW9euud97T4dM2Y2JnJj-20" value="Phone" style="swimlane;fontStyle=0;align=center;verticalAlign=top;childLayout=stackLayout;horizontal=1;startSize=26;horizontalStack=0;resizeParent=1;resizeLast=0;collapsible=1;marginBottom=0;rounded=0;shadow=0;strokeWidth=1;" parent="WIyWlLk6GJQsqaUBKTNV-1" vertex="1">
          <mxGeometry x="860" y="170" width="160" height="60" as="geometry">
            <mxRectangle x="550" y="140" width="160" height="26" as="alternateBounds" />
          </mxGeometry>
        </mxCell>
        <mxCell id="GW9euud97T4dM2Y2JnJj-21" value="+ is_valid()" style="text;align=left;verticalAlign=top;spacingLeft=4;spacingRight=4;overflow=hidden;rotatable=0;points=[[0,0.5],[1,0.5]];portConstraint=eastwest;rounded=0;shadow=0;html=0;" parent="GW9euud97T4dM2Y2JnJj-20" vertex="1">
          <mxGeometry y="26" width="160" height="26" as="geometry" />
        </mxCell>
        <mxCell id="GW9euud97T4dM2Y2JnJj-22" value="Tag" style="swimlane;fontStyle=0;align=center;verticalAlign=top;childLayout=stackLayout;horizontal=1;startSize=26;horizontalStack=0;resizeParent=1;resizeLast=0;collapsible=1;marginBottom=0;rounded=0;shadow=0;strokeWidth=1;" parent="WIyWlLk6GJQsqaUBKTNV-1" vertex="1">
          <mxGeometry x="1470" y="170" width="160" height="60" as="geometry">
            <mxRectangle x="550" y="140" width="160" height="26" as="alternateBounds" />
          </mxGeometry>
        </mxCell>
        <mxCell id="GW9euud97T4dM2Y2JnJj-23" value="+ is_valid()" style="text;align=left;verticalAlign=top;spacingLeft=4;spacingRight=4;overflow=hidden;rotatable=0;points=[[0,0.5],[1,0.5]];portConstraint=eastwest;rounded=0;shadow=0;html=0;" parent="GW9euud97T4dM2Y2JnJj-22" vertex="1">
          <mxGeometry y="26" width="160" height="26" as="geometry" />
        </mxCell>
        <mxCell id="GW9euud97T4dM2Y2JnJj-24" value="Text" style="swimlane;fontStyle=0;align=center;verticalAlign=top;childLayout=stackLayout;horizontal=1;startSize=26;horizontalStack=0;resizeParent=1;resizeLast=0;collapsible=1;marginBottom=0;rounded=0;shadow=0;strokeWidth=1;" parent="WIyWlLk6GJQsqaUBKTNV-1" vertex="1">
          <mxGeometry x="1270" y="170" width="160" height="60" as="geometry">
            <mxRectangle x="550" y="140" width="160" height="26" as="alternateBounds" />
          </mxGeometry>
        </mxCell>
        <mxCell id="GW9euud97T4dM2Y2JnJj-25" value="+ is_valid()" style="text;align=left;verticalAlign=top;spacingLeft=4;spacingRight=4;overflow=hidden;rotatable=0;points=[[0,0.5],[1,0.5]];portConstraint=eastwest;rounded=0;shadow=0;html=0;" parent="GW9euud97T4dM2Y2JnJj-24" vertex="1">
          <mxGeometry y="26" width="160" height="26" as="geometry" />
        </mxCell>
        <mxCell id="GW9euud97T4dM2Y2JnJj-26" value="Title" style="swimlane;fontStyle=0;align=center;verticalAlign=top;childLayout=stackLayout;horizontal=1;startSize=26;horizontalStack=0;resizeParent=1;resizeLast=0;collapsible=1;marginBottom=0;rounded=0;shadow=0;strokeWidth=1;" parent="WIyWlLk6GJQsqaUBKTNV-1" vertex="1">
          <mxGeometry x="1070" y="170" width="160" height="60" as="geometry">
            <mxRectangle x="550" y="140" width="160" height="26" as="alternateBounds" />
          </mxGeometry>
        </mxCell>
        <mxCell id="GW9euud97T4dM2Y2JnJj-27" value="+ is_valid()" style="text;align=left;verticalAlign=top;spacingLeft=4;spacingRight=4;overflow=hidden;rotatable=0;points=[[0,0.5],[1,0.5]];portConstraint=eastwest;rounded=0;shadow=0;html=0;" parent="GW9euud97T4dM2Y2JnJj-26" vertex="1">
          <mxGeometry y="26" width="160" height="26" as="geometry" />
        </mxCell>
        <mxCell id="GW9euud97T4dM2Y2JnJj-36" value="" style="endArrow=none;html=1;rounded=0;entryX=0.5;entryY=0;entryDx=0;entryDy=0;exitX=0.555;exitY=-0.071;exitDx=0;exitDy=0;exitPerimeter=0;" parent="WIyWlLk6GJQsqaUBKTNV-1" source="GW9euud97T4dM2Y2JnJj-22" target="GW9euud97T4dM2Y2JnJj-18" edge="1">
          <mxGeometry width="50" height="50" relative="1" as="geometry">
            <mxPoint x="1570" y="120" as="sourcePoint" />
            <mxPoint x="430" y="240" as="targetPoint" />
            <Array as="points">
              <mxPoint x="1559" y="120" />
              <mxPoint x="120" y="120" />
            </Array>
          </mxGeometry>
        </mxCell>
        <mxCell id="GW9euud97T4dM2Y2JnJj-37" value="" style="endArrow=none;html=1;rounded=0;exitX=0.5;exitY=0;exitDx=0;exitDy=0;" parent="WIyWlLk6GJQsqaUBKTNV-1" source="GW9euud97T4dM2Y2JnJj-9" edge="1">
          <mxGeometry width="50" height="50" relative="1" as="geometry">
            <mxPoint x="640" y="300" as="sourcePoint" />
            <mxPoint x="320" y="120" as="targetPoint" />
          </mxGeometry>
        </mxCell>
        <mxCell id="GW9euud97T4dM2Y2JnJj-38" value="" style="endArrow=none;html=1;rounded=0;entryX=0.5;entryY=0;entryDx=0;entryDy=0;" parent="WIyWlLk6GJQsqaUBKTNV-1" target="GW9euud97T4dM2Y2JnJj-12" edge="1">
          <mxGeometry width="50" height="50" relative="1" as="geometry">
            <mxPoint x="523" y="120" as="sourcePoint" />
            <mxPoint x="690" y="250" as="targetPoint" />
          </mxGeometry>
        </mxCell>
        <mxCell id="GW9euud97T4dM2Y2JnJj-39" value="" style="endArrow=none;html=1;rounded=0;entryX=0.5;entryY=0;entryDx=0;entryDy=0;" parent="WIyWlLk6GJQsqaUBKTNV-1" target="GW9euud97T4dM2Y2JnJj-16" edge="1">
          <mxGeometry width="50" height="50" relative="1" as="geometry">
            <mxPoint x="730" y="120" as="sourcePoint" />
            <mxPoint x="690" y="250" as="targetPoint" />
          </mxGeometry>
        </mxCell>
        <mxCell id="GW9euud97T4dM2Y2JnJj-40" value="" style="endArrow=none;html=1;rounded=0;exitX=0.5;exitY=0;exitDx=0;exitDy=0;" parent="WIyWlLk6GJQsqaUBKTNV-1" source="GW9euud97T4dM2Y2JnJj-20" edge="1">
          <mxGeometry width="50" height="50" relative="1" as="geometry">
            <mxPoint x="1190" y="300" as="sourcePoint" />
            <mxPoint x="940" y="120" as="targetPoint" />
          </mxGeometry>
        </mxCell>
        <mxCell id="GW9euud97T4dM2Y2JnJj-41" value="" style="endArrow=none;html=1;rounded=0;exitX=0.5;exitY=0;exitDx=0;exitDy=0;" parent="WIyWlLk6GJQsqaUBKTNV-1" source="GW9euud97T4dM2Y2JnJj-26" edge="1">
          <mxGeometry width="50" height="50" relative="1" as="geometry">
            <mxPoint x="1190" y="300" as="sourcePoint" />
            <mxPoint x="1150" y="120" as="targetPoint" />
          </mxGeometry>
        </mxCell>
        <mxCell id="GW9euud97T4dM2Y2JnJj-42" value="" style="endArrow=none;html=1;rounded=0;entryX=0.5;entryY=0;entryDx=0;entryDy=0;" parent="WIyWlLk6GJQsqaUBKTNV-1" target="GW9euud97T4dM2Y2JnJj-24" edge="1">
          <mxGeometry width="50" height="50" relative="1" as="geometry">
            <mxPoint x="1350" y="120" as="sourcePoint" />
            <mxPoint x="1360" y="130" as="targetPoint" />
          </mxGeometry>
        </mxCell>
        <mxCell id="GW9euud97T4dM2Y2JnJj-44" value="" style="endArrow=block;html=1;rounded=0;entryX=0.5;entryY=1;entryDx=0;entryDy=0;curved=0;endFill=0;" parent="WIyWlLk6GJQsqaUBKTNV-1" target="GW9euud97T4dM2Y2JnJj-0" edge="1">
          <mxGeometry width="50" height="50" relative="1" as="geometry">
            <mxPoint x="830" y="120" as="sourcePoint" />
            <mxPoint x="1240" y="250" as="targetPoint" />
          </mxGeometry>
        </mxCell>
        <mxCell id="GW9euud97T4dM2Y2JnJj-46" value="Note" style="swimlane;fontStyle=0;align=center;verticalAlign=top;childLayout=stackLayout;horizontal=1;startSize=26;horizontalStack=0;resizeParent=1;resizeLast=0;collapsible=1;marginBottom=0;rounded=0;shadow=0;strokeWidth=1;" parent="WIyWlLk6GJQsqaUBKTNV-1" vertex="1">
          <mxGeometry x="1285" y="330" width="130" height="160" as="geometry">
            <mxRectangle x="550" y="140" width="160" height="26" as="alternateBounds" />
          </mxGeometry>
        </mxCell>
        <mxCell id="GW9euud97T4dM2Y2JnJj-47" value="- _title&#xa;- _text&#xa;- _tags&#xa;- _creation_date&#xa;+ add_tag()&#xa;+ remove_tag()&#xa;+ find_tag()&#xa;+ change_tag()" style="text;align=left;verticalAlign=top;spacingLeft=4;spacingRight=4;overflow=hidden;rotatable=0;points=[[0,0.5],[1,0.5]];portConstraint=eastwest;rounded=0;shadow=0;html=0;" parent="GW9euud97T4dM2Y2JnJj-46" vertex="1">
          <mxGeometry y="26" width="130" height="134" as="geometry" />
        </mxCell>
        <mxCell id="GW9euud97T4dM2Y2JnJj-48" value="Contact" style="swimlane;fontStyle=0;align=center;verticalAlign=top;childLayout=stackLayout;horizontal=1;startSize=26;horizontalStack=0;resizeParent=1;resizeLast=0;collapsible=1;marginBottom=0;rounded=0;shadow=0;strokeWidth=1;" parent="WIyWlLk6GJQsqaUBKTNV-1" vertex="1">
          <mxGeometry x="458" y="330" width="130" height="190" as="geometry">
            <mxRectangle x="550" y="140" width="160" height="26" as="alternateBounds" />
          </mxGeometry>
        </mxCell>
        <mxCell id="GW9euud97T4dM2Y2JnJj-49" value="- _name&#xa;- _phones&#xa;- _address&#xa;- _email&#xa;- _birthday&#xa;+ add_phone()&#xa;+ edit_phone()&#xa;+ remove_phone()&#xa;+ phone_tuple()" style="text;align=left;verticalAlign=top;spacingLeft=4;spacingRight=4;overflow=hidden;rotatable=0;points=[[0,0.5],[1,0.5]];portConstraint=eastwest;rounded=0;shadow=0;html=0;" parent="GW9euud97T4dM2Y2JnJj-48" vertex="1">
          <mxGeometry y="26" width="130" height="164" as="geometry" />
        </mxCell>
        <mxCell id="GW9euud97T4dM2Y2JnJj-50" value="" style="endArrow=none;html=1;rounded=0;" parent="WIyWlLk6GJQsqaUBKTNV-1" edge="1">
          <mxGeometry width="50" height="50" relative="1" as="geometry">
            <mxPoint x="120" y="280" as="sourcePoint" />
            <mxPoint x="940" y="280" as="targetPoint" />
          </mxGeometry>
        </mxCell>
        <mxCell id="GW9euud97T4dM2Y2JnJj-54" value="" style="endArrow=classic;html=1;rounded=0;entryX=0.5;entryY=1;entryDx=0;entryDy=0;" parent="WIyWlLk6GJQsqaUBKTNV-1" target="GW9euud97T4dM2Y2JnJj-18" edge="1">
          <mxGeometry width="50" height="50" relative="1" as="geometry">
            <mxPoint x="120" y="280" as="sourcePoint" />
            <mxPoint x="650" y="360" as="targetPoint" />
          </mxGeometry>
        </mxCell>
        <mxCell id="GW9euud97T4dM2Y2JnJj-55" value="" style="endArrow=classic;html=1;rounded=0;entryX=0.5;entryY=1;entryDx=0;entryDy=0;" parent="WIyWlLk6GJQsqaUBKTNV-1" target="GW9euud97T4dM2Y2JnJj-20" edge="1">
          <mxGeometry width="50" height="50" relative="1" as="geometry">
            <mxPoint x="940" y="280" as="sourcePoint" />
            <mxPoint x="650" y="360" as="targetPoint" />
          </mxGeometry>
        </mxCell>
        <mxCell id="GW9euud97T4dM2Y2JnJj-56" value="" style="endArrow=classic;html=1;rounded=0;entryX=0.5;entryY=1;entryDx=0;entryDy=0;" parent="WIyWlLk6GJQsqaUBKTNV-1" target="GW9euud97T4dM2Y2JnJj-16" edge="1">
          <mxGeometry width="50" height="50" relative="1" as="geometry">
            <mxPoint x="730" y="280" as="sourcePoint" />
            <mxPoint x="650" y="360" as="targetPoint" />
          </mxGeometry>
        </mxCell>
        <mxCell id="GW9euud97T4dM2Y2JnJj-57" value="" style="endArrow=classic;html=1;rounded=0;entryX=0.5;entryY=1;entryDx=0;entryDy=0;" parent="WIyWlLk6GJQsqaUBKTNV-1" target="GW9euud97T4dM2Y2JnJj-12" edge="1">
          <mxGeometry width="50" height="50" relative="1" as="geometry">
            <mxPoint x="523" y="280" as="sourcePoint" />
            <mxPoint x="650" y="360" as="targetPoint" />
          </mxGeometry>
        </mxCell>
        <mxCell id="GW9euud97T4dM2Y2JnJj-58" value="" style="endArrow=classic;html=1;rounded=0;entryX=0.5;entryY=1;entryDx=0;entryDy=0;" parent="WIyWlLk6GJQsqaUBKTNV-1" target="GW9euud97T4dM2Y2JnJj-9" edge="1">
          <mxGeometry width="50" height="50" relative="1" as="geometry">
            <mxPoint x="320" y="280" as="sourcePoint" />
            <mxPoint x="650" y="360" as="targetPoint" />
          </mxGeometry>
        </mxCell>
        <mxCell id="GW9euud97T4dM2Y2JnJj-59" value="" style="endArrow=none;html=1;rounded=0;exitX=0.5;exitY=0;exitDx=0;exitDy=0;" parent="WIyWlLk6GJQsqaUBKTNV-1" source="GW9euud97T4dM2Y2JnJj-48" edge="1">
          <mxGeometry width="50" height="50" relative="1" as="geometry">
            <mxPoint x="600" y="410" as="sourcePoint" />
            <mxPoint x="523" y="280" as="targetPoint" />
          </mxGeometry>
        </mxCell>
        <mxCell id="GW9euud97T4dM2Y2JnJj-60" value="" style="endArrow=none;html=1;rounded=0;" parent="WIyWlLk6GJQsqaUBKTNV-1" edge="1">
          <mxGeometry width="50" height="50" relative="1" as="geometry">
            <mxPoint x="1150" y="280" as="sourcePoint" />
            <mxPoint x="1560" y="280" as="targetPoint" />
          </mxGeometry>
        </mxCell>
        <mxCell id="GW9euud97T4dM2Y2JnJj-61" value="" style="endArrow=classic;html=1;rounded=0;entryX=0.5;entryY=1;entryDx=0;entryDy=0;" parent="WIyWlLk6GJQsqaUBKTNV-1" target="GW9euud97T4dM2Y2JnJj-26" edge="1">
          <mxGeometry width="50" height="50" relative="1" as="geometry">
            <mxPoint x="1150" y="280" as="sourcePoint" />
            <mxPoint x="1400" y="320" as="targetPoint" />
          </mxGeometry>
        </mxCell>
        <mxCell id="GW9euud97T4dM2Y2JnJj-62" value="" style="endArrow=classic;html=1;rounded=0;" parent="WIyWlLk6GJQsqaUBKTNV-1" edge="1">
          <mxGeometry width="50" height="50" relative="1" as="geometry">
            <mxPoint x="1560" y="280" as="sourcePoint" />
            <mxPoint x="1560" y="230" as="targetPoint" />
          </mxGeometry>
        </mxCell>
        <mxCell id="GW9euud97T4dM2Y2JnJj-63" value="" style="endArrow=classic;html=1;rounded=0;entryX=0.5;entryY=1;entryDx=0;entryDy=0;" parent="WIyWlLk6GJQsqaUBKTNV-1" target="GW9euud97T4dM2Y2JnJj-24" edge="1">
          <mxGeometry width="50" height="50" relative="1" as="geometry">
            <mxPoint x="1350" y="280" as="sourcePoint" />
            <mxPoint x="1400" y="320" as="targetPoint" />
          </mxGeometry>
        </mxCell>
        <mxCell id="GW9euud97T4dM2Y2JnJj-64" value="" style="endArrow=none;html=1;rounded=0;exitX=0.5;exitY=0;exitDx=0;exitDy=0;" parent="WIyWlLk6GJQsqaUBKTNV-1" source="GW9euud97T4dM2Y2JnJj-46" edge="1">
          <mxGeometry width="50" height="50" relative="1" as="geometry">
            <mxPoint x="1350" y="360" as="sourcePoint" />
            <mxPoint x="1350" y="280" as="targetPoint" />
          </mxGeometry>
        </mxCell>
        <mxCell id="GW9euud97T4dM2Y2JnJj-65" value="ContactBook" style="swimlane;fontStyle=0;align=center;verticalAlign=top;childLayout=stackLayout;horizontal=1;startSize=26;horizontalStack=0;resizeParent=1;resizeLast=0;collapsible=1;marginBottom=0;rounded=0;shadow=0;strokeWidth=1;" parent="WIyWlLk6GJQsqaUBKTNV-1" vertex="1">
          <mxGeometry x="490" y="585" width="127" height="196" as="geometry">
            <mxRectangle x="550" y="140" width="160" height="26" as="alternateBounds" />
          </mxGeometry>
        </mxCell>
        <mxCell id="GW9euud97T4dM2Y2JnJj-71" value="+&amp;nbsp;add_contact()&lt;br&gt;+&amp;nbsp;edit_name()&lt;br&gt;+&amp;nbsp;edit_phone()&lt;br&gt;+&amp;nbsp;edit_address()&lt;br&gt;+ edit_email()&lt;br&gt;+&amp;nbsp;edit_birthday()&lt;br&gt;+&amp;nbsp;delete_contact()&lt;br&gt;+&amp;nbsp;get_contact()&lt;br&gt;+&amp;nbsp;find()&lt;br&gt;+&amp;nbsp;days_to_birthday()&lt;br&gt;+&amp;nbsp;names_tuple()" style="text;html=1;align=left;verticalAlign=middle;resizable=0;points=[];autosize=1;strokeColor=none;fillColor=none;" parent="GW9euud97T4dM2Y2JnJj-65" vertex="1">
          <mxGeometry y="26" width="127" height="170" as="geometry" />
        </mxCell>
        <mxCell id="GW9euud97T4dM2Y2JnJj-67" value="NoteBook" style="swimlane;fontStyle=0;align=center;verticalAlign=top;childLayout=stackLayout;horizontal=1;startSize=26;horizontalStack=0;resizeParent=1;resizeLast=0;collapsible=1;marginBottom=0;rounded=0;shadow=0;strokeWidth=1;" parent="WIyWlLk6GJQsqaUBKTNV-1" vertex="1">
          <mxGeometry x="1040" y="585" width="120" height="140" as="geometry">
            <mxRectangle x="550" y="140" width="160" height="26" as="alternateBounds" />
          </mxGeometry>
        </mxCell>
        <mxCell id="GW9euud97T4dM2Y2JnJj-73" value="+ add_record()&lt;br&gt;+ find()&lt;br&gt;&lt;font face=&quot;Helvetica&quot;&gt;+ delete()&lt;br&gt;&lt;/font&gt;+ get_note()&lt;br&gt;+ iterator()&lt;br&gt;&lt;span style=&quot;background-color: rgb(255, 255, 255);&quot;&gt;+ notes_tags_set()&lt;br&gt;+ titles_tuple()&lt;br&gt;&lt;/span&gt;" style="text;html=1;align=left;verticalAlign=middle;resizable=0;points=[];autosize=1;strokeColor=none;fillColor=none;" parent="GW9euud97T4dM2Y2JnJj-67" vertex="1">
          <mxGeometry y="26" width="120" height="110" as="geometry" />
        </mxCell>
        <mxCell id="GW9euud97T4dM2Y2JnJj-69" value="FileSorter" style="swimlane;fontStyle=0;align=center;verticalAlign=top;childLayout=stackLayout;horizontal=1;startSize=26;horizontalStack=0;resizeParent=1;resizeLast=0;collapsible=1;marginBottom=0;rounded=0;shadow=0;strokeWidth=1;" parent="WIyWlLk6GJQsqaUBKTNV-1" vertex="1">
          <mxGeometry x="760" y="585" width="120" height="120" as="geometry">
            <mxRectangle x="550" y="140" width="160" height="26" as="alternateBounds" />
          </mxGeometry>
        </mxCell>
        <mxCell id="GW9euud97T4dM2Y2JnJj-70" value="+ init_folder()&#xa;+ main()&#xa;+ find_file()&#xa;+ normalize()" style="text;align=left;verticalAlign=top;spacingLeft=4;spacingRight=4;overflow=hidden;rotatable=0;points=[[0,0.5],[1,0.5]];portConstraint=eastwest;rounded=0;shadow=0;html=0;" parent="GW9euud97T4dM2Y2JnJj-69" vertex="1">
          <mxGeometry y="26" width="120" height="84" as="geometry" />
        </mxCell>
        <mxCell id="GW9euud97T4dM2Y2JnJj-78" value="" style="endArrow=classic;html=1;rounded=0;entryX=0.519;entryY=0.998;entryDx=0;entryDy=0;entryPerimeter=0;exitX=0.5;exitY=0;exitDx=0;exitDy=0;" parent="WIyWlLk6GJQsqaUBKTNV-1" source="GW9euud97T4dM2Y2JnJj-65" target="GW9euud97T4dM2Y2JnJj-49" edge="1">
          <mxGeometry width="50" height="50" relative="1" as="geometry">
            <mxPoint x="610" y="840" as="sourcePoint" />
            <mxPoint x="530" y="530" as="targetPoint" />
            <Array as="points">
              <mxPoint x="554" y="560" />
              <mxPoint x="525" y="560" />
            </Array>
          </mxGeometry>
        </mxCell>
        <mxCell id="GW9euud97T4dM2Y2JnJj-79" value="" style="endArrow=classic;html=1;rounded=0;exitX=0.5;exitY=0;exitDx=0;exitDy=0;" parent="WIyWlLk6GJQsqaUBKTNV-1" source="GW9euud97T4dM2Y2JnJj-67" edge="1">
          <mxGeometry width="50" height="50" relative="1" as="geometry">
            <mxPoint x="1140" y="680" as="sourcePoint" />
            <mxPoint x="1350" y="490" as="targetPoint" />
            <Array as="points">
              <mxPoint x="1100" y="530" />
              <mxPoint x="1350" y="530" />
            </Array>
          </mxGeometry>
        </mxCell>
        <mxCell id="GW9euud97T4dM2Y2JnJj-80" value="Assistant" style="swimlane;fontStyle=0;align=center;verticalAlign=top;childLayout=stackLayout;horizontal=1;startSize=26;horizontalStack=0;resizeParent=1;resizeLast=0;collapsible=1;marginBottom=0;rounded=0;shadow=0;strokeWidth=1;" parent="WIyWlLk6GJQsqaUBKTNV-1" vertex="1">
          <mxGeometry x="730" y="920" width="180" height="460" as="geometry">
            <mxRectangle x="550" y="140" width="160" height="26" as="alternateBounds" />
          </mxGeometry>
        </mxCell>
        <mxCell id="GW9euud97T4dM2Y2JnJj-81" value="+ running&#xa;+ contact_book&#xa;+ notes_book&#xa;+ validated_input()&#xa;+ save()&#xa;+ load()&#xa;+ help()&#xa;+ list_command()&#xa;+ about()&#xa;+ exit_command()&#xa;+ add_command()&#xa;+ remove_command()&#xa;+ add_phone_command()&#xa;+ rm_phone_command()&#xa;+ edit_phone_command()&#xa;+ edit_name_command()&#xa;+ edit_address_command()&#xa;+ edit_email_command()&#xa;+ edit_birthday_command()&#xa;+ search_command()&#xa;+ show_command()&#xa;+ show_notes_command()&#xa;+ add_note_command()&#xa;+ add_tag_command()&#xa;+ rm_tag_command()&#xa;+ edit_tag_command()&#xa;+ rm_note_command()&#xa;+ search_note_command()&#xa;+ search_note_tag_command()&#xa;+ sort_command()&#xa;+ birthday_command()&#xa;+ main_loop()" style="text;align=left;verticalAlign=top;spacingLeft=4;spacingRight=4;overflow=hidden;rotatable=0;points=[[0,0.5],[1,0.5]];portConstraint=eastwest;rounded=0;shadow=0;html=0;" parent="GW9euud97T4dM2Y2JnJj-80" vertex="1">
          <mxGeometry y="26" width="180" height="434" as="geometry" />
        </mxCell>
        <mxCell id="GW9euud97T4dM2Y2JnJj-82" value="" style="endArrow=classic;html=1;rounded=0;exitX=0.5;exitY=0;exitDx=0;exitDy=0;" parent="WIyWlLk6GJQsqaUBKTNV-1" source="GW9euud97T4dM2Y2JnJj-80" edge="1">
          <mxGeometry width="50" height="50" relative="1" as="geometry">
            <mxPoint x="710" y="710" as="sourcePoint" />
            <mxPoint x="550" y="780" as="targetPoint" />
            <Array as="points">
              <mxPoint x="820" y="820" />
              <mxPoint x="550" y="820" />
            </Array>
          </mxGeometry>
        </mxCell>
        <mxCell id="GW9euud97T4dM2Y2JnJj-84" value="" style="endArrow=classic;html=1;rounded=0;entryX=0.5;entryY=1;entryDx=0;entryDy=0;" parent="WIyWlLk6GJQsqaUBKTNV-1" target="GW9euud97T4dM2Y2JnJj-67" edge="1">
          <mxGeometry width="50" height="50" relative="1" as="geometry">
            <mxPoint x="820" y="820" as="sourcePoint" />
            <mxPoint x="1100" y="730" as="targetPoint" />
            <Array as="points">
              <mxPoint x="1100" y="820" />
            </Array>
          </mxGeometry>
        </mxCell>
        <mxCell id="GW9euud97T4dM2Y2JnJj-85" value="" style="endArrow=classic;html=1;rounded=0;entryX=0.5;entryY=1;entryDx=0;entryDy=0;" parent="WIyWlLk6GJQsqaUBKTNV-1" target="GW9euud97T4dM2Y2JnJj-69" edge="1">
          <mxGeometry width="50" height="50" relative="1" as="geometry">
            <mxPoint x="820" y="820" as="sourcePoint" />
            <mxPoint x="820" y="700" as="targetPoint" />
          </mxGeometry>
        </mxCell>
        <mxCell id="QVXCKvRAeL2spXmvz-lh-0" value="AssistantAbstract" style="swimlane;fontStyle=0;align=center;verticalAlign=top;childLayout=stackLayout;horizontal=1;startSize=26;horizontalStack=0;resizeParent=1;resizeLast=0;collapsible=1;marginBottom=0;rounded=0;shadow=0;strokeWidth=1;" vertex="1" parent="WIyWlLk6GJQsqaUBKTNV-1">
          <mxGeometry x="354" y="920" width="120" height="120" as="geometry">
            <mxRectangle x="550" y="140" width="160" height="26" as="alternateBounds" />
          </mxGeometry>
        </mxCell>
        <mxCell id="QVXCKvRAeL2spXmvz-lh-1" value="+ main_loop()" style="text;align=left;verticalAlign=top;spacingLeft=4;spacingRight=4;overflow=hidden;rotatable=0;points=[[0,0.5],[1,0.5]];portConstraint=eastwest;rounded=0;shadow=0;html=0;" vertex="1" parent="QVXCKvRAeL2spXmvz-lh-0">
          <mxGeometry y="26" width="120" height="84" as="geometry" />
        </mxCell>
      </root>
    </mxGraphModel>
  </diagram>
</mxfile>
